<?xml version="1.0"?>
<svg xmlns="http://www.w3.org/2000/svg" xmlns:xlink="http://www.w3.org/1999/xlink" version="1.1" id="Layer_1" x="0px" y="0px" viewBox="0 0 512 512" style="enable-background:new 0 0 512 512;" xml:space="preserve" width="512px" height="512px"><g><g>
	<g>
		<path d="M373.333,0H138.667C97.493,0,64,33.493,64,74.667v426.667c0,4.309,2.603,8.213,6.592,9.856    c1.323,0.555,2.709,0.811,4.075,0.811c2.773,0,5.504-1.088,7.531-3.136l120.512-120.512    c47.125,46.528,112.064,110.976,119.061,118.869c1.536,2.325,3.947,4.011,6.827,4.565c4.949,0.939,10.027-1.707,11.947-6.421    c0.555-1.344,1.024-2.453,0.725-4.032l0.064-106.667c0-5.888-4.779-10.667-10.667-10.667S320,388.779,320,394.667v80.363    c-18.176-18.859-51.093-51.328-109.845-109.269c-4.16-4.117-10.88-4.096-15.04,0.043L85.333,475.584V74.667    c0-29.397,23.936-53.333,53.333-53.333h192.021c-6.699,8.917-10.688,19.989-10.688,32V96c0,5.888,4.779,10.667,10.667,10.667    s10.667-4.779,10.667-10.667V53.333c0-17.643,14.357-32,32-32c5.888,0,10.667-4.779,10.667-10.667S379.221,0,373.333,0z" data-original="#000000" class="active-path" data-old_color="#000000" fill="#FFFFFF"/>
	</g>
</g><g>
	<g>
		<path d="M373.333,0c-5.888,0-10.667,4.779-10.667,10.667s4.779,10.667,10.667,10.667c17.643,0,32,14.357,32,32V64h-74.667    C324.779,64,320,68.779,320,74.667s4.779,10.667,10.667,10.667H416c5.888,0,10.667-4.779,10.667-10.667V53.333    C426.667,23.936,402.731,0,373.333,0z" data-original="#000000" class="active-path" data-old_color="#000000" fill="#FFFFFF"/>
	</g>
</g><g>
	<g>
		<path d="M330.667,128c-64.704,0-117.333,52.629-117.333,117.333s52.629,117.333,117.333,117.333S448,310.037,448,245.333    S395.371,128,330.667,128z M330.667,341.333c-52.928,0-96-43.072-96-96c0-52.928,43.072-96,96-96s96,43.072,96,96    C426.667,298.261,383.595,341.333,330.667,341.333z" data-original="#000000" class="active-path" data-old_color="#000000" fill="#FFFFFF"/>
	</g>
</g><g>
	<g>
		<path d="M373.333,234.667H288c-5.888,0-10.667,4.779-10.667,10.667S282.112,256,288,256h85.333    c5.888,0,10.667-4.779,10.667-10.667S379.221,234.667,373.333,234.667z" data-original="#000000" class="active-path" data-old_color="#000000" fill="#FFFFFF"/>
	</g>
</g><g>
	<g>
		<path d="M330.667,192c-5.888,0-10.667,4.779-10.667,10.667V288c0,5.888,4.779,10.667,10.667,10.667s10.667-4.779,10.667-10.667    v-85.333C341.333,196.779,336.555,192,330.667,192z" data-original="#000000" class="active-path" data-old_color="#000000" fill="#FFFFFF"/>
	</g>
</g></g> </svg>
