<?xml version="1.0"?>
<svg xmlns="http://www.w3.org/2000/svg" id="outline" viewBox="0 0 512 512" width="512px" height="512px"><g><path d="M224,184h8a24.0275,24.0275,0,0,0,24-24v-8H240v8a8.00917,8.00917,0,0,1-8,8h-8Z" data-original="#000000" class="active-path" data-old_color="#000000" fill="#32CE98"/><circle cx="216" cy="136" r="8" data-original="#000000" class="active-path" data-old_color="#000000" fill="#32CE98"/><circle cx="264" cy="136" r="8" data-original="#000000" class="active-path" data-old_color="#000000" fill="#32CE98"/><path d="M434.53027,264.41016l-24-8a8.00084,8.00084,0,0,0-6.10839.43457L392,263.05566l-8-4V248a8.00026,8.00026,0,0,0-5.46973-7.58984l-48-16a8.00052,8.00052,0,0,0-6.10839.43457l-27.824,13.91186-10.70923-4.86792L275.5415,213.19409A63.98524,63.98524,0,0,0,304,160V105.86914A23.94343,23.94343,0,0,0,312,88a7.99934,7.99934,0,0,0-.84473-3.57812l-7.20581-14.41163A56.05689,56.05689,0,0,0,248,16H232a56.05689,56.05689,0,0,0-55.94946,54.01025l-7.20581,14.41163A7.99934,7.99934,0,0,0,168,88a23.94343,23.94343,0,0,0,8,17.86914V160a63.98524,63.98524,0,0,0,28.4585,53.19409l-10.34717,20.69458L128.05176,263.916a63.93884,63.93884,0,0,0-32,32.2705L72.68945,348.751A7.99977,7.99977,0,0,0,76.751,359.31055l9.62036,4.27588-13.96118,41.8833A8.01957,8.01957,0,0,0,72,408v40a8.00075,8.00075,0,0,0,4.84863,7.35352l56,24a7.99885,7.99885,0,0,0,5.21289.376L144,478.146V488a8.00039,8.00039,0,0,0,8,8H376a8.00026,8.00026,0,0,0,7.58984-5.46973l16-48a8.00788,8.00788,0,0,0,.25489-4.09961l-14.2544-71.272,17.65869-7.84814a7.999,7.999,0,0,0,4.02344-10.64356l-12.52-27.3164,18.71729,6.23925a8.00327,8.00327,0,0,0,10.12011-5.05957l16-48A8.00129,8.00129,0,0,0,434.53027,264.41016ZM304.52,367.74023l9.34009-28.0205,18.42016,6.13965-9.34033,28.0205Zm-15.17993-5.06-6.80982-2.27a8.00584,8.00584,0,0,0-7.33007,1.18945L244.89941,384.3252,160,394.9375V312h21.333l29.86719,22.40039A8.00115,8.00115,0,0,0,216,336h48a8.00235,8.00235,0,0,0,5.65723-2.34277L291.31348,312h14.92041ZM174.55591,296H160V266.96973l9.0332-4.106Zm137.01147,0H298.24585l5.177-20.708,7.96289-2.65429,6.83106,3.415ZM184.15625,89.57617,188.94434,80H291.05566l4.78809,9.57617A8.01324,8.01324,0,0,1,288,96H192A8.01324,8.01324,0,0,1,184.15625,89.57617ZM287.19629,64H264V35.3501A40.14512,40.14512,0,0,1,287.19629,64ZM216,35.3501V56h16V32h16V64H192.80371A40.14512,40.14512,0,0,1,216,35.3501ZM192,160V112h96v48a48,48,0,0,1-96,0Zm48,64a63.69937,63.69937,0,0,0,21.2373-3.637l8.71485,17.42993-14.96,11.96777a23.86664,23.86664,0,0,1-29.98535,0l-14.959-11.96777L218.7627,220.363A63.69937,63.69937,0,0,0,240,224Zm-41.16162,25.31616,16.17334,12.93872a39.77909,39.77909,0,0,0,49.97656,0l7.03906-5.63134a7.96773,7.96773,0,0,0,.81739,2.95458l8,16a7.98525,7.98525,0,0,0,4.98584,4.11573l-5.05371,20.21484L260.68652,320H218.667l-27.30224-20.47656-7.25245-43.51367Zm-88.16553,53.36841a47.95371,47.95371,0,0,1,24-24.20215L144,274.24268v97.44726L90.55957,347.93848Zm25.9375,160.873L88,442.72461V409.29785l13.06152-39.18262L144,389.19922v7.73828l-24.99219,3.124,1.98438,15.877,128-16a8.00141,8.00141,0,0,0,3.80761-1.53809L281.44629,376.915,320,389.76562v22.9209l-26.62891,26.62891-35.80175-7.16016a8.00378,8.00378,0,0,0-3.63086.11524ZM160,480v-6.12061L256.25977,448.21l38.17089,7.63477a7.99547,7.99547,0,0,0,7.22657-2.1875L320,435.31445V480Zm223.73828-40.51465L370.23438,480H336V389.19922l34.60522-15.38037Zm-42.41284-70.16211,23.73413-71.2041,1.70532.56836,22.59058,49.28906Zm69.615-59.44238-13.2666-4.42285-6.51856-13.03613a8.001,8.001,0,0,0-4.625-4.01172l-24-8a8.00406,8.00406,0,0,0-10.12011,5.05957l-15.07007,45.21045L318.91992,324.54l16.66992-50.00977a8.00064,8.00064,0,0,0-4.01172-9.68554l-16-8a8.00524,8.00524,0,0,0-6.10839-.43457l-17.417,5.80664-1.31933-2.63868,37.88086-18.94042L368,253.76562V264a8.00022,8.00022,0,0,0,4.42188,7.15527l16,8a7.99634,7.99634,0,0,0,7.15624,0l13.03614-6.51757,13.2666,4.42187Z" data-original="#000000" class="active-path" data-old_color="#000000" fill="#32CE98"/></g> </svg>
